<svg xmlns="http://www.w3.org/2000/svg" width="138.071" height="47.993" viewBox="0 0 138.071 47.993"><defs><style>.a{fill:#898989;}</style></defs><g transform="translate(-20.917 -249.917)"><g transform="translate(20.917 249.917)"><path class="a" d="M44.913,249.917a23.982,23.982,0,0,0-16.958,40.954,7.978,7.978,0,0,0,6.914-5.885l3.862,1.035a12.009,12.009,0,0,1-6.95,7.953q.5.326,1.023.627a13.153,13.153,0,0,0,4.56-3.693,7.98,7.98,0,0,0,7.514-5.922l3.863,1.035a12.015,12.015,0,0,1-11.59,8.891h-3.84A23.983,23.983,0,0,0,61.87,256.956a7.979,7.979,0,0,0-6.919,5.885l-3.862-1.035a12.01,12.01,0,0,1,6.954-7.955q-.5-.326-1.023-.627a13.153,13.153,0,0,0-4.565,3.695,7.98,7.98,0,0,0-7.514,5.922l-3.863-1.035a12.015,12.015,0,0,1,11.59-8.891h3.846a24,24,0,0,0-11.6-3Zm20.381,3a2,2,0,1,0,2,2A2,2,0,0,0,65.294,252.914Zm-24.215,8.892,3.863,1.035-1.091,4.073h5.87l1.369-5.108,3.863,1.035-1.091,4.073H61.25a2,2,0,1,1,0,4H52.789l-1.608,6h7.39a2,2,0,1,1,0,4H50.11l-1.369,5.109-3.863-1.035,1.091-4.074H40.1l-1.369,5.109-3.863-1.035,1.091-4.073H28.575a2,2,0,1,1,0-4h8.455l1.608-6H31.255a2,2,0,1,1,0-4H39.71Zm1.7,9.107-1.607,6h5.87l1.607-6Z" transform="translate(-20.917 -249.917)"/><g transform="translate(66.971 8.677)"><g transform="translate(0 0)"><path class="a" d="M37.9,226.287H31.482a2.3,2.3,0,1,0,0,4.6h5.183l-1.55,5.785a4.579,4.579,0,0,1-4.439,3.406,2.3,2.3,0,0,0,0,4.6c.06,0,.12,0,.18-.008a9.206,9.206,0,0,0,8.7-6.8h0l1.869-6.974h1.492a10.092,10.092,0,0,1,5.011-4.6H42.654l1.658-6.187A4.574,4.574,0,0,1,48.75,216.7h0a2.3,2.3,0,1,0,0-4.6h0c-.059,0-.118,0-.177.008a9.206,9.206,0,0,0-8.7,6.8ZM97.182,212.1c-.062,0-.124,0-.186.009a9.206,9.206,0,0,0-8.683,6.8h0l-1.977,7.375H72.717a9.209,9.209,0,0,0-8.876,6.812l-2.327,8.677h0a2.295,2.295,0,1,0,4.433,1.188h0l2.325-8.676a4.578,4.578,0,0,1,4.439-3.408h12.39l-1.55,5.785a4.579,4.579,0,0,1-4.431,3.406h-.008a2.3,2.3,0,0,0,0,4.6h0c.06,0,.119,0,.179-.008a9.21,9.21,0,0,0,8.7-6.8h0l1.868-6.974h6.766a2.3,2.3,0,1,0,0-4.6H91.095l1.658-6.186h0a4.572,4.572,0,0,1,4.437-3.4h0a2.3,2.3,0,0,0-.008-4.6Zm-20.32,8a2.3,2.3,0,1,0,2.3,2.3A2.3,2.3,0,0,0,76.862,220.1Zm-25.13,6.189a9.191,9.191,0,1,0,9.191,9.191A9.226,9.226,0,0,0,51.732,226.287Zm3.807,0a10.092,10.092,0,0,1,5.011,4.6H63.9a10,10,0,0,1,5.017-4.6Zm-3.807,4.6a4.6,4.6,0,1,1-4.6,4.6A4.561,4.561,0,0,1,51.732,230.882ZM71.668,232.9l-2.379,8.878h0a2.295,2.295,0,1,0,4.433,1.188h0l2.379-8.878.319-1.19H71.669Z" transform="translate(-28.379 -212.1)"/></g></g></g></g></svg>